<?xml version="1.0" standalone="no"?>
<!DOCTYPE svg PUBLIC "-//W3C//DTD SVG 20010904//EN"
 "http://www.w3.org/TR/2001/REC-SVG-20010904/DTD/svg10.dtd">
<svg version="1.0" xmlns="http://www.w3.org/2000/svg"
 width="500.000000pt" height="500.000000pt" viewBox="0 0 500.000000 500.000000"
 preserveAspectRatio="xMidYMid meet">
<metadata>
Created by potrace 1.14, written by Peter Selinger 2001-2017
</metadata>
<g transform="translate(0.000000,500.000000) scale(0.100000,-0.100000)"
fill="#000000" stroke="none">
<path d="M0 2500 l0 -2500 2500 0 2500 0 0 2500 0 2500 -2500 0 -2500 0 0
-2500z m2300 15 l0 -855 -255 0 -255 0 0 855 0 855 255 0 255 0 0 -855z m998
833 c-8 -13 -117 -183 -241 -379 l-227 -356 241 -434 c132 -239 252 -453 265
-476 l25 -43 -289 0 -289 0 -229 448 c-126 246 -230 452 -232 459 -2 6 103
190 233 407 l236 396 260 0 261 0 -14 -22z"/>
</g>
</svg>
