<?xml version="1.0" standalone="no"?>
<!DOCTYPE svg PUBLIC "-//W3C//DTD SVG 20010904//EN"
 "http://www.w3.org/TR/2001/REC-SVG-20010904/DTD/svg10.dtd">
<svg version="1.0" xmlns="http://www.w3.org/2000/svg"
 width="500.000000pt" height="500.000000pt" viewBox="0 0 500.000000 500.000000"
 preserveAspectRatio="xMidYMid meet">
<metadata>
Created by potrace 1.14, written by Peter Selinger 2001-2017
</metadata>
<g transform="translate(0.000000,500.000000) scale(0.100000,-0.100000)"
fill="#000000" stroke="none">
<path d="M717 2113 c-2 -4 -8 -51 -11 -103 -10 -141 -34 -328 -56 -443 -11
-56 -20 -103 -20 -104 0 -11 -28 1 -48 20 -14 12 -22 15 -17 7 5 -8 -3 -5 -17
8 -13 12 -28 22 -33 22 -5 0 -20 10 -33 23 -14 12 -22 15 -17 7 5 -8 -3 -5
-17 8 -13 12 -28 22 -33 22 -5 0 -20 10 -33 23 -14 12 -22 15 -17 7 5 -8 -3
-5 -17 8 -13 12 -28 22 -33 22 -5 0 -20 10 -33 23 -14 12 -22 15 -17 7 5 -8
-3 -5 -17 8 -13 12 -28 22 -33 22 -5 0 -20 10 -33 23 -14 12 -22 15 -17 7 5
-8 -3 -5 -17 8 -13 12 -28 22 -33 22 -5 0 -20 10 -33 23 -14 12 -22 15 -17 7
5 -8 -3 -5 -17 8 -13 12 -30 22 -36 22 -18 0 -17 -1456 2 -1525 30 -114 105
-204 216 -258 l65 -32 2125 -3 c1169 -2 2158 0 2198 3 40 4 70 11 66 16 -3 5
-10 7 -15 3 -5 -3 -8 0 -7 8 2 7 -3 12 -9 11 -7 -2 -12 3 -10 10 1 6 -4 11
-11 9 -8 -1 -11 1 -8 6 3 5 -10 24 -29 42 -19 18 -32 37 -29 42 3 5 0 7 -8 6
-7 -2 -12 3 -11 9 2 7 -3 12 -10 10 -6 -1 -11 4 -10 10 2 7 -3 12 -10 10 -6
-1 -11 4 -10 10 2 7 -2 12 -9 10 -7 -1 -13 5 -13 13 0 8 -6 14 -13 13 -7 -2
-11 3 -9 10 1 6 -4 11 -10 10 -7 -2 -12 3 -10 10 1 6 -4 11 -10 10 -7 -2 -12
3 -10 10 1 6 -4 11 -11 9 -8 -1 -11 1 -8 6 3 5 -10 24 -29 42 -19 18 -32 37
-29 42 3 5 0 7 -8 6 -7 -2 -12 3 -11 9 2 7 -3 12 -10 10 -6 -1 -11 4 -10 10 2
7 -3 12 -10 10 -6 -1 -11 4 -10 10 2 7 -2 12 -9 10 -7 -1 -13 5 -13 13 0 8 -6
14 -13 13 -7 -2 -11 3 -9 10 1 6 -4 11 -10 10 -7 -2 -12 3 -10 10 1 6 -4 11
-10 10 -7 -2 -12 3 -10 10 1 6 -4 11 -11 9 -8 -1 -11 1 -8 6 3 5 -10 24 -29
42 -19 18 -32 37 -29 42 3 5 0 7 -8 6 -7 -2 -12 3 -11 9 2 7 -3 12 -10 10 -6
-1 -11 4 -10 10 2 7 -3 12 -10 10 -6 -1 -11 4 -10 10 2 7 -2 12 -9 10 -7 -1
-13 5 -13 13 0 8 -6 14 -13 13 -7 -2 -11 3 -9 10 1 6 -4 11 -10 10 -7 -2 -12
3 -10 10 1 6 -4 11 -10 10 -7 -2 -12 3 -10 10 1 6 -4 11 -11 9 -8 -1 -11 1 -8
6 3 5 -10 24 -29 42 -19 18 -32 37 -29 42 3 5 0 7 -8 6 -7 -2 -12 3 -10 10 1
6 -4 11 -10 10 -7 -2 -12 3 -10 10 1 6 -4 11 -10 10 -7 -2 -12 3 -10 10 1 6
-3 11 -10 10 -7 -2 -12 4 -13 12 -1 8 -6 14 -13 12 -7 -1 -11 4 -10 10 2 7 -3
12 -10 10 -6 -1 -11 4 -10 10 2 7 -3 12 -10 10 -6 -1 -11 4 -10 10 2 7 -3 12
-10 10 -8 -1 -11 1 -8 6 3 5 -10 24 -29 42 -19 18 -32 37 -29 42 3 5 0 7 -8 6
-7 -2 -12 3 -10 10 1 6 -4 11 -10 10 -7 -2 -12 3 -10 10 1 6 -4 11 -10 10 -7
-2 -12 3 -10 10 1 6 -3 11 -10 10 -7 -2 -12 4 -13 12 -1 8 -7 14 -14 12 -7 -1
-10 2 -7 7 3 5 -2 15 -11 22 -12 10 -14 10 -9 2 4 -7 3 -13 -2 -13 -5 0 -57
-55 -115 -123 -115 -133 -268 -287 -306 -307 -13 -6 -21 -8 -18 -2 4 5 -5 19
-18 32 -13 13 -22 27 -19 31 3 5 -2 9 -11 9 -9 0 -14 4 -11 9 3 4 -6 18 -19
31 -13 13 -22 27 -19 32 3 5 0 7 -7 6 -7 -2 -13 4 -14 12 -1 8 -7 14 -14 12
-7 -1 -10 2 -7 7 3 5 -1 14 -9 21 -8 7 -12 16 -9 21 3 5 0 8 -7 7 -7 -2 -13 4
-14 12 -1 8 -7 14 -14 12 -7 -1 -10 1 -7 6 3 5 -6 19 -19 32 -13 13 -22 27
-19 32 3 5 0 7 -7 6 -7 -2 -13 4 -14 12 -1 8 -7 14 -14 12 -7 -1 -10 2 -7 7 3
5 -1 14 -9 21 -8 7 -12 16 -9 21 3 5 0 8 -7 7 -7 -2 -13 4 -14 12 -1 8 -7 14
-14 12 -7 -1 -10 2 -7 7 3 5 -1 14 -9 21 -8 7 -12 16 -9 21 3 5 0 8 -7 7 -7
-2 -13 4 -14 12 -1 8 -7 14 -14 12 -7 -1 -10 1 -7 6 3 5 -6 19 -19 32 -13 13
-22 27 -19 32 3 5 0 7 -7 6 -7 -2 -13 4 -14 12 -1 8 -7 14 -14 12 -7 -1 -10 2
-7 7 3 5 -1 14 -9 21 -8 7 -12 16 -9 21 3 5 0 8 -7 7 -7 -2 -13 4 -14 12 -1 8
-7 14 -14 12 -7 -1 -10 1 -7 6 3 5 -6 19 -19 32 -13 13 -22 27 -19 31 3 5 -2
9 -11 9 -9 0 -14 4 -11 9 3 4 -6 18 -19 31 -13 13 -22 27 -19 32 3 5 0 7 -7 6
-7 -2 -13 4 -14 12 -1 8 -7 14 -14 12 -7 -1 -10 2 -7 7 3 5 -1 14 -9 21 -8 7
-12 16 -9 21 3 5 0 8 -7 7 -7 -2 -13 4 -14 12 -1 8 -7 14 -14 12 -7 -1 -10 1
-7 6 3 5 -6 19 -19 32 -13 13 -22 27 -19 31 3 5 -2 9 -11 9 -9 0 -14 4 -11 9
3 4 -6 18 -19 31 -13 13 -22 27 -19 32 3 5 0 7 -7 6 -7 -2 -14 4 -14 12 -1 8
-7 14 -14 12 -7 -1 -10 2 -7 7 3 5 -1 14 -9 21 -8 7 -12 16 -9 21 3 5 0 8 -7
7 -7 -2 -14 4 -14 12 0 8 -7 14 -14 12 -7 -1 -10 1 -7 6 3 5 -6 19 -19 32 -13
13 -22 27 -19 32 3 5 0 7 -8 6 -7 -2 -12 4 -10 12 8 36 -18 -13 -63 -120 -62
-148 -164 -350 -176 -350 -6 0 -7 -6 -3 -12 4 -7 -2 -4 -14 6 -12 11 -22 16
-22 13 0 -4 -16 2 -36 13 -20 12 -32 15 -28 8 4 -7 -5 -2 -21 12 -16 14 -25
18 -20 10 5 -8 -4 -4 -20 10 -16 14 -25 19 -21 12 4 -7 -9 -3 -29 8 -20 11
-33 15 -29 8 4 -7 -5 -2 -21 12 -16 14 -25 18 -20 10 5 -8 -4 -4 -20 10 -16
14 -25 20 -21 13 4 -7 -18 1 -49 17 -31 16 -53 24 -49 17 4 -7 -5 -1 -21 13
-16 14 -25 20 -21 13 4 -7 -18 1 -49 17 -31 16 -53 24 -49 17 4 -7 -5 -1 -21
13 -16 14 -25 20 -21 13 4 -7 -18 1 -49 17 -31 16 -53 24 -49 17 4 -7 -5 -1
-21 13 -16 14 -25 20 -21 13 4 -7 -18 1 -49 17 -31 16 -53 24 -49 17 4 -7 -5
-1 -21 13 -16 14 -25 20 -21 13 4 -7 -18 1 -49 17 -31 16 -53 24 -49 17 4 -7
-5 -1 -21 13 -16 14 -24 18 -20 10 5 -10 1 -8 -13 4 -12 11 -22 16 -22 13 0
-4 -16 2 -36 13 -20 12 -32 15 -28 8 4 -7 -4 -3 -18 10 -14 13 -28 20 -31 15z"/>
</g>
</svg>
